<svg width="19" height="14" viewBox="0 0 19 14" fill="none" xmlns="http://www.w3.org/2000/svg">
<mask id="path-1-inside-1_1_217" fill="white">
<path fill-rule="evenodd" clip-rule="evenodd" d="M14.0599 0C10.0105 0 9.49993 2.30813 9.49993 2.30813C9.49993 2.30813 8.98931 0 4.93996 0C0.890618 0 0 2.30813 0 2.30813V11.7356H1.66249C3.20788 10.6908 6.03398 10.7407 7.68514 11.6284C8.50533 12.0694 9.14113 12.7251 9.49993 13.5C9.86068 12.727 10.4973 12.0736 11.3173 11.6345C12.9696 10.7499 15.7933 10.7019 17.3374 11.7458H18.9999V2.30813C18.9999 2.30813 18.1092 0 14.0599 0Z"/>
</mask>
<path d="M9.49993 2.30813L8.49831 2.52972H10.5015L9.49993 2.30813ZM0 2.30813L-0.957059 1.93884L-1.02584 2.11708V2.30813H0ZM0 11.7356H-1.02584V12.7614H0V11.7356ZM1.66249 11.7356V12.7614H1.97672L2.23704 12.5854L1.66249 11.7356ZM7.68514 11.6284L8.17093 10.7249L7.68514 11.6284ZM9.49993 13.5L8.56904 13.931L9.49625 15.9335L10.4295 13.9338L9.49993 13.5ZM11.3173 11.6345L11.8015 12.5389L11.3173 11.6345ZM17.3374 11.7458L16.7628 12.5957L17.0231 12.7717H17.3374V11.7458ZM18.9999 11.7458V12.7717H20.0257V11.7458H18.9999ZM18.9999 2.30813H20.0257V2.11708L19.9569 1.93884L18.9999 2.30813ZM14.0599 -1.02584C11.8288 -1.02584 10.4269 -0.383886 9.57081 0.395503C9.15179 0.776974 8.89016 1.1679 8.73047 1.4788C8.65086 1.63381 8.59663 1.76879 8.56049 1.87306C8.54241 1.92525 8.52878 1.96995 8.51873 2.00588C8.5137 2.02386 8.50956 2.03967 8.5062 2.05315C8.50451 2.0599 8.50302 2.06607 8.50171 2.07164C8.50106 2.07442 8.50045 2.07706 8.49988 2.07954C8.4996 2.08079 8.49933 2.08199 8.49906 2.08316C8.49893 2.08374 8.49874 2.08459 8.49868 2.08488C8.49849 2.08572 8.49831 2.08655 9.49993 2.30813C10.5015 2.52972 10.5014 2.53053 10.5012 2.53133C10.5011 2.53158 10.501 2.53238 10.5008 2.53289C10.5006 2.53392 10.5004 2.53491 10.5002 2.53588C10.4997 2.5378 10.4993 2.5396 10.4989 2.54128C10.4981 2.54463 10.4974 2.54749 10.4968 2.54986C10.4956 2.55462 10.4949 2.55747 10.4946 2.55854C10.494 2.56066 10.4953 2.55577 10.4991 2.54485C10.5067 2.52289 10.524 2.47755 10.5555 2.41617C10.6181 2.2943 10.7372 2.10819 10.952 1.91263C11.3636 1.53795 12.2416 1.02584 14.0599 1.02584V-1.02584ZM9.49993 2.30813C10.5015 2.08655 10.5014 2.08572 10.5012 2.08488C10.5011 2.08459 10.5009 2.08374 10.5008 2.08316C10.5005 2.08199 10.5003 2.08079 10.5 2.07954C10.4994 2.07706 10.4988 2.07442 10.4981 2.07164C10.4968 2.06607 10.4953 2.0599 10.4937 2.05315C10.4903 2.03967 10.4861 2.02386 10.4811 2.00588C10.4711 1.96995 10.4574 1.92525 10.4394 1.87306C10.4032 1.76879 10.349 1.63381 10.2694 1.4788C10.1097 1.1679 9.84806 0.776974 9.42904 0.395503C8.57295 -0.383886 7.17103 -1.02584 4.93996 -1.02584V1.02584C6.75824 1.02584 7.6363 1.53795 8.04785 1.91263C8.26266 2.10819 8.38176 2.2943 8.44436 2.41617C8.47589 2.47755 8.49318 2.52289 8.50079 2.54485C8.50458 2.55577 8.50588 2.56066 8.50529 2.55854C8.50499 2.55747 8.50421 2.55462 8.50302 2.54986C8.50243 2.54749 8.50173 2.54463 8.50094 2.54128C8.50055 2.5396 8.50013 2.5378 8.49969 2.53588C8.49947 2.53491 8.49925 2.53392 8.49902 2.53289C8.4989 2.53238 8.49872 2.53158 8.49867 2.53133C8.49849 2.53053 8.49831 2.52972 9.49993 2.30813ZM4.93996 -1.02584C2.70606 -1.02584 1.24123 -0.383773 0.314705 0.349789C-0.141198 0.710742 -0.448336 1.07942 -0.646548 1.37166C-0.745516 1.51757 -0.817351 1.64444 -0.867239 1.74204C-0.892199 1.79087 -0.911728 1.83249 -0.926466 1.86566C-0.933838 1.88225 -0.940019 1.89674 -0.945089 1.90898C-0.947624 1.91511 -0.949883 1.92067 -0.951874 1.92565C-0.95287 1.92814 -0.953799 1.93049 -0.954663 1.93268C-0.955095 1.93378 -0.95551 1.93485 -0.95591 1.93587C-0.956109 1.93638 -0.956397 1.93713 -0.956496 1.93738C-0.95678 1.93812 -0.957059 1.93884 0 2.30813C0.957059 2.67742 0.956787 2.67813 0.956517 2.67882C0.956431 2.67905 0.956163 2.67974 0.955991 2.68018C0.955647 2.68106 0.955313 2.68192 0.954991 2.68274C0.954347 2.68438 0.953748 2.68589 0.953196 2.68727C0.952092 2.69003 0.951172 2.69228 0.950446 2.69403C0.948993 2.69754 0.948307 2.69907 0.948447 2.69876C0.948732 2.69812 0.952292 2.69015 0.959594 2.67587C0.97423 2.64724 1.00361 2.59378 1.05141 2.52331C1.14673 2.38277 1.31533 2.17442 1.58825 1.95834C2.11937 1.53784 3.12452 1.02584 4.93996 1.02584V-1.02584ZM-1.02584 2.30813V11.7356H1.02584V2.30813H-1.02584ZM0 12.7614H1.66249V10.7097H0V12.7614ZM7.19934 12.532C7.84268 12.8779 8.31212 13.3762 8.56904 13.931L10.4308 13.069C9.97014 12.0741 9.16798 11.261 8.17093 10.7249L7.19934 12.532ZM10.4295 13.9338C10.6879 13.3801 11.1582 12.8833 11.8015 12.5389L10.8331 10.7301C9.83641 11.2638 9.03342 12.074 8.57035 13.0661L10.4295 13.9338ZM17.3374 12.7717H18.9999V10.72H17.3374V12.7717ZM20.0257 11.7458V2.30813H17.974V11.7458H20.0257ZM18.9999 2.30813C19.9569 1.93884 19.9566 1.93812 19.9564 1.93738C19.9563 1.93713 19.956 1.93638 19.9558 1.93587C19.9554 1.93485 19.9549 1.93378 19.9545 1.93268C19.9537 1.93049 19.9527 1.92814 19.9517 1.92565C19.9497 1.92067 19.9475 1.91511 19.9449 1.90898C19.9399 1.89674 19.9337 1.88225 19.9263 1.86566C19.9116 1.83249 19.8921 1.79087 19.8671 1.74204C19.8172 1.64444 19.7454 1.51757 19.6464 1.37166C19.4482 1.07942 19.1411 0.710742 18.6851 0.349789C17.7586 -0.383773 16.2938 -1.02584 14.0599 -1.02584V1.02584C15.8753 1.02584 16.8805 1.53784 17.4116 1.95834C17.6845 2.17442 17.8531 2.38277 17.9484 2.52331C17.9962 2.59378 18.0256 2.64724 18.0403 2.67587C18.0476 2.69015 18.0511 2.69812 18.0514 2.69876C18.0515 2.69907 18.0509 2.69754 18.0494 2.69403C18.0487 2.69228 18.0478 2.69003 18.0467 2.68727C18.0461 2.68589 18.0455 2.68438 18.0449 2.68274C18.0445 2.68192 18.0442 2.68106 18.0439 2.68018C18.0437 2.67974 18.0434 2.67905 18.0433 2.67882C18.0431 2.67813 18.0428 2.67742 18.9999 2.30813ZM11.8015 12.5389C12.442 12.196 13.3825 11.9858 14.3606 11.9928C15.346 11.9998 16.2155 12.2257 16.7628 12.5957L17.9119 10.896C16.9151 10.2221 15.6008 9.94994 14.3753 9.94116C13.1424 9.93232 11.8449 10.1884 10.8331 10.7301L11.8015 12.5389ZM2.23704 12.5854C2.78474 12.2151 3.65491 11.9895 4.64078 11.9831C5.61929 11.9768 6.55974 12.1881 7.19934 12.532L8.17093 10.7249C7.15938 10.181 5.8612 9.9235 4.62752 9.93148C3.4012 9.9394 2.08563 10.2112 1.08793 10.8857L2.23704 12.5854Z" fill="black" mask="url(#path-1-inside-1_1_217)"/>
</svg>
